<svg xmlns="http://www.w3.org/2000/svg" viewBox="0 0 495.2 425.99"><defs><style>.cls-1,.cls-2{fill:#b3b3b3;}.cls-2{font-size:96.93px;font-family:iCielGotham-Ultra, iCiel Gotham;letter-spacing:0.08em;}.cls-3{letter-spacing:0.05em;}.cls-4{letter-spacing:0.09em;}.cls-5{letter-spacing:0.06em;}.cls-6{letter-spacing:0.08em;}</style></defs><g id="Layer_2" data-name="Layer 2"><g id="Layer_1-2" data-name="Layer 1"><path class="cls-1" d="M395,128.85a152.28,152.28,0,0,1-73.81,66.37c11.58-25.29,24.63-88.52,31.27-150.47l0-.11A151.35,151.35,0,0,0,287.26,6,775.86,775.86,0,0,1,248,206.44c-3.69,10.9-7.37,20.95-10.92,30.09l-.06.15q-3.08,7.94-6,14.94C218.28,282.12,208.54,299,208.54,299a152,152,0,0,0,175.8-87.3,149.75,149.75,0,0,0,5.42-14.64l.18-.58a152.91,152.91,0,0,0,5-67.67Z"/><path class="cls-1" d="M245,0a152.73,152.73,0,0,0-31.12,3.19c-2.49.52-5,1.11-7.4,1.75a42.27,42.27,0,0,0-11.56,3.52c-6.43,65.68-19.29,143.07-35.23,174.14-.26-.33-.51-.67-.76-1-.74-1-1.47-2-2.19-3A152,152,0,0,1,135.75,46.4a151.75,151.75,0,0,0,49.17,244.69h0c.18-.31,7.86-13.73,18.4-38q2.19-5,4.53-10.68,2.89-7,6-14.91l.05-.12c3-7.82,6.13-16.3,9.26-25.4A776.36,776.36,0,0,0,263.45,1.12,152.53,152.53,0,0,0,245,0Z"/><text class="cls-2" transform="translate(1.06 393.9)">V<tspan class="cls-3" x="82.19" y="0">I</tspan><tspan class="cls-4" x="117.77" y="0">C</tspan><tspan class="cls-5" x="196.96" y="0">TR</tspan><tspan class="cls-6" x="342.83" y="0">EX</tspan></text></g></g></svg>