<svg xmlns="http://www.w3.org/2000/svg" viewBox="0 0 10.3 7.39"><defs><style>.cls-1{fill:#fff;}</style></defs><g id="Capa_2" data-name="Capa 2"><g id="Capa_1-2" data-name="Capa 1"><path class="cls-1" d="M10.25.69v0h0V.54h0v0h0v0h0v0h0v0h0v0h0l0,0h0v0H9.93v0H.39l0,0h0l0,0h0l0,0h0v0h0v0h0v0h0v0h0v0h0V.66h0v0A1.07,1.07,0,0,0,0,1V6.38a1,1,0,0,0,1,1H9.3a1,1,0,0,0,1-.7.43.43,0,0,0,0-.05,1.09,1.09,0,0,0,0-.26V1a.83.83,0,0,0-.05-.32ZM.8.74H9.51L5.39,4.87a.35.35,0,0,1-.24.1.37.37,0,0,1-.24-.1L.8.75Zm-.13.83L2.8,3.7.67,5.82ZM9.3,6.72H1A.32.32,0,0,1,.8,6.64L3.27,4.17,4.44,5.34a1,1,0,0,0,1.42,0L7,4.17,9.51,6.64a.32.32,0,0,1-.21.08Zm.33-.91L7.51,3.69,9.63,1.57Z"/></g></g></svg>