<svg xmlns="http://www.w3.org/2000/svg" viewBox="0 0 8.97 8.97"><defs><style>.cls-1{fill:#fff;}</style></defs><g id="Capa_2" data-name="Capa 2"><g id="Capa_1-2" data-name="Capa 1"><path class="cls-1" d="M0,1.06A1.07,1.07,0,0,1,.28.34,1.08,1.08,0,0,1,1.05,0H2.47a1.05,1.05,0,0,1,1,.93,5,5,0,0,0,.19.93,1.07,1.07,0,0,1-.26,1.05l-.58.57A6.6,6.6,0,0,0,5.49,6.1l.57-.57a1,1,0,0,1,1.06-.26A5.78,5.78,0,0,0,8,5.46,1,1,0,0,1,9,6.5V7.92A1,1,0,0,1,7.82,9a8.57,8.57,0,0,1-2.91-.8A8.69,8.69,0,0,1,2.5,6.47,8.8,8.8,0,0,1,.8,4.07,8.93,8.93,0,0,1,0,1.15V1.06ZM3.05,2.17a.41.41,0,0,0,0-.11,5.3,5.3,0,0,1-.22-1A.35.35,0,0,0,2.47.7H1.05A.34.34,0,0,0,.79.82a.37.37,0,0,0-.09.27A7.94,7.94,0,0,0,7.88,8.27a.35.35,0,0,0,.39-.35V6.5A.35.35,0,0,0,8,6.15a6.3,6.3,0,0,1-1-.21A.34.34,0,0,0,6.56,6L5.62,7,5.4,6.84A7.29,7.29,0,0,1,2.13,3.57L2,3.35,3,2.42a.35.35,0,0,0,.1-.25Z"/></g></g></svg>